<?xml version="1.0" standalone="no"?>
<!DOCTYPE svg PUBLIC "-//W3C//DTD SVG 20010904//EN"
 "http://www.w3.org/TR/2001/REC-SVG-20010904/DTD/svg10.dtd">
<svg version="1.0" xmlns="http://www.w3.org/2000/svg"
 width="597.000000pt" height="437.000000pt" viewBox="0 0 597.000000 437.000000"
 preserveAspectRatio="xMidYMid meet">
<metadata>
Created by potrace 1.16, written by Peter Selinger 2001-2019
</metadata>
<g transform="translate(0.000000,437.000000) scale(0.100000,-0.100000)"
fill="#000000" stroke="none">
<path d="M1028 2847 c-128 -36 -202 -136 -215 -288 -7 -80 19 -177 68 -254 17
-27 96 -115 174 -195 154 -157 184 -205 171 -274 -9 -47 -56 -86 -105 -86 -45
0 -87 38 -97 87 -4 22 -15 35 -34 43 -36 15 -116 15 -154 0 -28 -10 -29 -12
-23 -69 9 -105 72 -192 175 -243 56 -28 77 -33 137 -33 125 0 230 67 286 181
30 60 31 69 27 153 -4 79 -9 99 -43 168 -32 66 -58 98 -167 207 -153 153 -175
180 -194 241 -16 56 -9 97 22 129 46 45 138 37 155 -14 13 -37 61 -54 135 -48
72 6 88 21 80 75 -12 88 -74 170 -156 206 -56 25 -177 32 -242 14z"/>
<path d="M2130 2840 c-123 -32 -214 -84 -306 -175 -137 -135 -198 -278 -198
-460 0 -55 6 -125 13 -155 91 -373 453 -590 825 -494 176 46 340 181 421 349
51 106 68 190 63 320 -8 181 -64 309 -195 441 -160 161 -405 230 -623 174z
m312 -143 c225 -72 372 -272 372 -507 0 -142 -49 -257 -154 -362 -74 -74 -170
-128 -268 -149 -51 -12 -57 -11 -99 11 -156 83 -283 311 -283 510 0 186 108
384 268 490 55 36 70 37 164 7z"/>
<path d="M3400 2847 c-111 -32 -185 -92 -228 -185 l-27 -57 0 -410 0 -410 28
-61 c48 -103 129 -161 256 -184 122 -22 221 8 295 91 51 57 75 117 83 211 6
66 5 68 -21 78 -41 15 -138 12 -162 -5 -16 -10 -23 -29 -26 -67 -7 -69 -39
-98 -106 -98 -61 0 -93 17 -114 60 -16 31 -18 72 -18 383 0 383 3 402 59 431
16 9 46 16 66 16 72 0 115 -43 115 -115 0 -18 7 -40 15 -49 23 -23 97 -30 147
-15 l43 14 -1 76 c-3 177 -114 293 -292 305 -39 2 -86 -2 -112 -9z"/>
<path d="M4085 2853 c-46 -12 -45 10 -45 -659 l0 -633 23 -13 c12 -7 52 -13
88 -13 52 0 72 4 88 19 21 19 21 21 21 640 0 342 -4 626 -8 633 -17 27 -105
41 -167 26z"/>
<path d="M4710 2846 c-106 -31 -155 -73 -199 -165 l-26 -56 3 -432 c2 -487 1
-479 82 -567 62 -67 124 -90 246 -90 89 0 107 3 157 27 63 32 110 80 141 146
20 44 21 64 24 464 3 356 1 426 -13 472 -26 92 -101 171 -184 195 -60 18 -182
21 -231 6z m161 -223 c57 -34 59 -47 59 -430 0 -320 -1 -351 -19 -383 -51 -96
-186 -73 -211 35 -12 52 -12 648 0 700 18 81 101 119 171 78z"/>
<path d="M296 1151 c-6 -9 39 -275 49 -292 4 -5 14 -9 23 -7 12 2 22 25 33 78
17 80 21 78 39 -13 11 -57 31 -80 51 -60 11 11 59 284 52 296 -2 4 -13 7 -23
7 -14 0 -21 -10 -26 -37 -20 -114 -19 -114 -33 -48 -17 83 -18 85 -41 85 -23
0 -24 -2 -41 -85 l-13 -60 -14 73 c-12 58 -18 72 -33 72 -10 0 -20 -4 -23 -9z"/>
<path d="M604 1147 c-2 -7 -3 -76 -2 -152 3 -137 4 -140 26 -143 21 -3 22 0
22 62 l0 66 30 0 c29 0 29 -1 32 -62 3 -57 5 -63 26 -66 l22 -3 0 155 0 156
-25 0 c-24 0 -25 -2 -25 -65 l0 -65 -30 0 -30 0 0 65 c0 59 -2 65 -20 65 -11
0 -23 -6 -26 -13z"/>
<path d="M828 1144 c-2 -9 -2 -79 0 -156 l3 -139 57 3 c50 3 57 6 60 26 3 20
-1 22 -37 22 l-41 0 0 40 c0 38 2 40 30 40 25 0 30 4 30 25 0 21 -5 25 -30 25
-28 0 -30 2 -30 39 0 39 1 40 38 43 30 2 38 7 40 26 3 21 0 22 -57 22 -47 0
-60 -3 -63 -16z"/>
<path d="M1014 1147 c-2 -7 -3 -76 -2 -152 3 -137 4 -140 26 -143 21 -3 22 0
22 57 0 80 17 80 52 1 25 -57 48 -75 63 -49 4 5 -3 35 -15 65 -21 50 -21 56
-7 72 36 39 28 130 -13 152 -28 15 -120 13 -126 -3z"/>
<path d="M1248 1151 c-1 -6 -2 -76 0 -156 l3 -146 57 3 c49 3 57 6 57 23 0 16
-8 21 -37 23 -37 3 -38 4 -38 43 0 37 2 39 30 39 25 0 30 4 30 25 0 21 -5 25
-30 25 -28 0 -30 2 -30 39 0 39 1 40 38 43 29 2 37 7 37 23 0 17 -8 20 -57 23
-32 2 -57 -1 -60 -7z"/>
<path d="M1592 1137 c-20 -21 -22 -34 -22 -134 0 -109 1 -112 26 -132 51 -40
124 -14 124 44 0 32 -32 34 -52 3 -10 -14 -20 -19 -32 -15 -14 6 -16 20 -14
104 3 91 4 98 24 101 15 2 23 -3 27 -17 8 -32 47 -28 47 4 0 60 -85 88 -128
42z"/>
<path d="M1790 1140 c-18 -18 -20 -33 -20 -133 0 -100 2 -116 20 -135 27 -29
83 -29 110 -2 18 18 20 33 20 135 0 132 -11 155 -75 155 -22 0 -43 -8 -55 -20z"/>
<path d="M1980 1005 l0 -156 23 3 c20 3 22 10 27 77 l5 74 30 -74 c23 -57 35
-74 50 -74 19 0 20 8 23 153 l3 152 -25 0 c-24 0 -25 -2 -28 -77 l-3 -76 -30
74 c-24 58 -35 75 -53 77 -22 3 -22 3 -22 -153z"/>
<path d="M2204 1147 c-2 -7 -3 -76 -2 -152 3 -136 4 -140 25 -143 21 -3 22 1
25 80 l3 83 34 -83 c29 -71 37 -83 55 -80 20 3 21 9 24 156 l3 152 -26 0 c-25
0 -25 -1 -25 -77 0 -42 -4 -73 -8 -67 -5 5 -21 39 -36 77 -21 50 -33 67 -47
67 -11 0 -22 -6 -25 -13z"/>
<path d="M2430 1005 l0 -155 60 0 c57 0 60 1 60 25 0 22 -4 25 -35 25 -34 0
-35 1 -35 40 0 36 3 40 25 40 20 0 25 5 25 25 0 20 -5 25 -25 25 -22 0 -25 4
-25 40 0 39 1 40 35 40 31 0 35 3 35 25 0 24 -3 25 -60 25 l-60 0 0 -155z"/>
<path d="M2646 1139 c-25 -20 -26 -24 -26 -130 0 -103 1 -111 25 -134 45 -46
125 -21 125 40 0 31 -35 35 -45 4 -5 -14 -14 -19 -28 -17 -21 3 -22 8 -22 103
0 95 1 100 22 103 14 2 23 -3 28 -17 3 -12 15 -21 26 -21 14 0 19 7 19 29 0
57 -73 80 -124 40z"/>
<path d="M2812 1138 c2 -19 10 -24 41 -26 l37 -3 0 -130 c0 -122 1 -129 20
-129 23 0 22 -6 20 152 l-1 107 38 3 c31 2 39 7 41 26 3 22 1 22 -98 22 -99 0
-101 0 -98 -22z"/>
<path d="M3180 1140 c-18 -18 -20 -33 -20 -133 0 -106 2 -115 23 -135 30 -28
80 -29 107 -2 18 18 20 33 20 135 0 132 -11 155 -75 155 -22 0 -43 -8 -55 -20z"/>
<path d="M3370 1006 c0 -149 1 -156 20 -156 18 0 20 7 20 82 0 45 3 78 8 74 4
-4 21 -40 37 -79 23 -55 35 -72 50 -72 19 0 20 8 23 153 l3 152 -25 0 c-24 0
-25 -2 -28 -77 l-3 -76 -31 74 c-23 57 -35 75 -52 77 -22 3 -22 2 -22 -152z"/>
<path d="M3607 1142 c-10 -11 -17 -35 -17 -59 0 -34 7 -49 45 -91 25 -27 45
-57 45 -65 0 -24 -19 -31 -39 -13 -24 22 -51 20 -51 -4 0 -25 38 -60 66 -60
35 0 74 37 74 71 0 38 -13 64 -61 116 -24 26 -36 48 -33 58 7 16 44 21 44 5 0
-5 11 -10 25 -10 31 0 33 22 5 50 -26 26 -81 26 -103 2z"/>
<path d="M3960 1153 c0 -4 -11 -71 -24 -148 -13 -77 -22 -143 -19 -147 2 -5
13 -8 23 -8 14 0 21 9 25 33 6 29 11 34 33 32 22 -1 28 -7 32 -30 5 -32 36
-47 45 -23 3 8 -5 77 -17 153 l-23 140 -37 3 c-21 2 -38 0 -38 -5z"/>
<path d="M4138 1150 c-1 -5 -2 -75 0 -155 3 -144 3 -146 25 -143 19 3 22 10
25 61 4 71 17 70 46 -3 22 -54 50 -76 62 -47 2 7 -4 37 -16 66 -18 47 -19 54
-5 67 35 35 30 122 -8 149 -24 17 -123 21 -129 5z"/>
<path d="M4370 1005 l0 -155 60 0 c57 0 60 1 60 25 0 22 -4 25 -35 25 -34 0
-35 1 -35 40 0 36 3 40 25 40 20 0 25 5 25 25 0 20 -5 25 -25 25 -22 0 -25 4
-25 39 0 37 2 40 33 43 24 2 33 8 35 26 3 21 0 22 -57 22 l-61 0 0 -155z"/>
<path d="M4672 1138 c2 -19 10 -24 41 -26 l37 -3 0 -130 c0 -122 1 -129 20
-129 19 0 20 7 20 129 l0 130 38 3 c29 2 37 7 37 23 0 18 -8 20 -98 23 -98 3
-98 3 -95 -20z"/>
<path d="M4914 1147 c-2 -7 -3 -76 -2 -152 3 -137 4 -140 26 -143 20 -3 22 1
23 50 1 29 1 56 0 61 0 4 5 7 12 7 8 0 25 -27 40 -60 24 -57 47 -75 62 -49 4
5 -3 35 -15 65 -21 50 -21 56 -7 72 36 39 28 130 -13 152 -28 15 -120 13 -126
-3z"/>
<path d="M5150 1034 c0 -125 0 -126 29 -155 31 -31 59 -36 93 -18 35 19 48 70
48 189 l0 110 -25 0 -25 0 0 -111 c0 -110 -9 -149 -34 -149 -35 0 -44 36 -45
173 -1 80 -3 87 -21 87 -19 0 -20 -7 -20 -126z"/>
<path d="M5382 1008 l3 -153 58 -3 c55 -3 57 -2 57 23 0 22 -4 25 -35 25 -34
0 -35 1 -35 39 0 36 3 40 28 43 19 2 27 9 27 23 0 14 -8 21 -27 23 -25 3 -28
7 -28 43 0 38 1 39 35 39 31 0 35 3 35 25 0 24 -3 25 -60 25 l-61 0 3 -152z"/>
</g>
</svg>
